<svg width="80" height="80" viewBox="0 0 80 80" fill="none" xmlns="http://www.w3.org/2000/svg">
    <circle cx="40" cy="40" r="40" fill="#E6F7FF"/>
    <path d="M52.7782 59.7083H27.1116C20.2366 59.7083 20.2366 55.895 20.2366 52.8333V51C20.2366 49.24 21.6849 47.7916 23.4449 47.7916H56.4449C58.2049 47.7916 59.6532 49.24 59.6532 51V52.8333C59.6532 55.895 59.6532 59.7083 52.7782 59.7083ZM23.4449 50.5416C23.1882 50.5416 22.9866 50.7433 22.9866 51V52.8333C22.9866 55.84 22.9866 56.9583 27.1116 56.9583H52.7782C56.9032 56.9583 56.9032 55.84 56.9032 52.8333V51C56.9032 50.7433 56.7016 50.5416 56.4449 50.5416H23.4449Z" fill="#1890FF"/>
    <path d="M55.9868 50.5416H23.9951C23.2435 50.5416 22.6201 49.9183 22.6201 49.1666V41.8333C22.6201 34.3166 27.9551 27.7166 35.2885 26.1583C36.3701 25.92 37.5068 25.7916 38.6618 25.7916H41.3201C42.4935 25.7916 43.6301 25.92 44.7118 26.1583C52.0451 27.735 57.3618 34.335 57.3618 41.8333V49.1666C57.3618 49.9183 56.7568 50.5416 55.9868 50.5416ZM25.3701 47.7916H54.6118V41.8333C54.6118 35.6183 50.2118 30.155 44.1251 28.835C43.2268 28.6333 42.2918 28.5416 41.3201 28.5416H38.6618C37.7085 28.5416 36.7735 28.6333 35.8751 28.835C29.7885 30.1366 25.3701 35.6 25.3701 41.8333V47.7916Z" fill="#1890FF"/>
    <path d="M35.5817 28.8716C34.9767 28.8716 34.4267 28.4683 34.2617 27.8633C34.1151 27.3316 34.0417 26.8 34.0417 26.25C34.0417 22.9683 36.7184 20.2916 40.0001 20.2916C43.2817 20.2916 45.9584 22.9683 45.9584 26.25C45.9584 26.8 45.8851 27.3316 45.7384 27.8633C45.5551 28.56 44.8584 29 44.1251 28.835C43.2267 28.6333 42.2917 28.5416 41.3201 28.5416H38.6617C37.7084 28.5416 36.7734 28.6333 35.8751 28.835C35.7834 28.8533 35.6917 28.8716 35.5817 28.8716ZM38.6617 25.7916H41.3201C41.9434 25.7916 42.5851 25.8283 43.1901 25.9016C43.0251 24.2883 41.6501 23.0416 40.0001 23.0416C38.3501 23.0416 36.9934 24.2883 36.8101 25.9016C37.4334 25.8283 38.0384 25.7916 38.6617 25.7916Z" fill="#1890FF"/>
    <path d="M45.5 39.5416H34.5C33.7483 39.5416 33.125 38.9183 33.125 38.1666C33.125 37.415 33.7483 36.7916 34.5 36.7916H45.5C46.2517 36.7916 46.875 37.415 46.875 38.1666C46.875 38.9183 46.2517 39.5416 45.5 39.5416Z" fill="#1890FF"/>
    </svg>
    