<svg width="80" height="80" viewBox="0 0 80 80" fill="none" xmlns="http://www.w3.org/2000/svg">
    <circle cx="40" cy="40" r="40" fill="#E6F7FF"/>
    <path d="M41.9248 47.7916H38.4782C36.0399 47.7916 34.0415 45.7383 34.0415 43.2083C34.0415 42.4566 34.6648 41.8333 35.4165 41.8333C36.1682 41.8333 36.7915 42.4566 36.7915 43.2083C36.7915 44.2166 37.5432 45.0416 38.4782 45.0416H41.9248C42.6398 45.0416 43.2082 44.3999 43.2082 43.6116C43.2082 42.6216 42.9332 42.4749 42.3099 42.2549L36.7915 40.3299C35.6182 39.9266 34.0415 39.0649 34.0415 36.3699C34.0415 34.0783 35.8565 32.1899 38.0749 32.1899H41.5215C43.9598 32.1899 45.9582 34.2433 45.9582 36.7733C45.9582 37.5249 45.3348 38.1483 44.5832 38.1483C43.8315 38.1483 43.2082 37.5249 43.2082 36.7733C43.2082 35.7649 42.4565 34.9399 41.5215 34.9399H38.0749C37.3599 34.9399 36.7915 35.5816 36.7915 36.3699C36.7915 37.3599 37.0665 37.5066 37.6898 37.7266L43.2082 39.6516C44.3815 40.0549 45.9582 40.9166 45.9582 43.6116C45.9582 45.9216 44.1431 47.7916 41.9248 47.7916Z" fill="#12B76A"/>
    <path d="M40 49.625C39.2483 49.625 38.625 49.0017 38.625 48.25V31.75C38.625 30.9983 39.2483 30.375 40 30.375C40.7517 30.375 41.375 30.9983 41.375 31.75V48.25C41.375 49.0017 40.7517 49.625 40 49.625Z" fill="#12B76A"/>
    <path d="M39.9998 59.7083C29.1282 59.7083 20.2915 50.8716 20.2915 40C20.2915 29.1283 29.1282 20.2916 39.9998 20.2916C40.7515 20.2916 41.3748 20.915 41.3748 21.6666C41.3748 22.4183 40.7515 23.0416 39.9998 23.0416C30.6498 23.0416 23.0415 30.65 23.0415 40C23.0415 49.35 30.6498 56.9583 39.9998 56.9583C49.3498 56.9583 56.9582 49.35 56.9582 40C56.9582 39.2483 57.5815 38.625 58.3332 38.625C59.0848 38.625 59.7082 39.2483 59.7082 40C59.7082 50.8716 50.8715 59.7083 39.9998 59.7083Z" fill="#12B76A"/>
    <path d="M56.4998 32.2083H49.1665C48.4148 32.2083 47.7915 31.585 47.7915 30.8333V23.5C47.7915 22.7483 48.4148 22.125 49.1665 22.125C49.9182 22.125 50.5415 22.7483 50.5415 23.5V29.4583H56.4998C57.2515 29.4583 57.8748 30.0817 57.8748 30.8333C57.8748 31.585 57.2515 32.2083 56.4998 32.2083Z" fill="#12B76A"/>
    <path d="M49.1663 32.2083C48.818 32.2083 48.4696 32.08 48.1946 31.805C47.663 31.2733 47.663 30.3933 48.1946 29.8617L57.3613 20.695C57.893 20.1633 58.773 20.1633 59.3046 20.695C59.8363 21.2267 59.8363 22.1067 59.3046 22.6383L50.138 31.805C49.863 32.08 49.5146 32.2083 49.1663 32.2083Z" fill="#12B76A"/>
    </svg>
    