<svg width="80" height="80" viewBox="0 0 80 80" fill="none" xmlns="http://www.w3.org/2000/svg">
    <circle cx="40" cy="40" r="40" fill="#E6F7FF"/>
    <path d="M61.983 30.2485L58.8426 19.2491C58.7333 18.8696 58.5207 18.5424 58.2372 18.3173C57.9536 18.0922 57.6148 17.9816 57.2724 18.0025H22.7276C22.3852 17.9816 22.0464 18.0922 21.7628 18.3173C21.4793 18.5424 21.2667 18.8696 21.1574 19.2491L18.017 30.2485C17.9943 30.4431 17.9943 30.6404 18.017 30.8351V41.8345C18.017 42.3207 18.1824 42.787 18.4769 43.1308C18.7713 43.4746 19.1707 43.6677 19.5872 43.6677H21.1574V62H24.2978V43.6677H33.7191V62H58.8426V43.6677H60.4128C60.8293 43.6677 61.2287 43.4746 61.5231 43.1308C61.8176 42.787 61.983 42.3207 61.983 41.8345V30.8351C62.0057 30.6404 62.0057 30.4431 61.983 30.2485ZM55.7022 58.3335H36.8596V43.6677H55.7022V58.3335ZM58.8426 40.0012H52.5617V32.6683H49.4213V40.0012H41.5702V32.6683H38.4298V40.0012H30.5787V32.6683H27.4383V40.0012H21.1574V31.1284L23.8582 21.669H56.1418L58.8426 31.1284V40.0012Z" fill="#F25A5A"/>
    </svg>
    