<svg width="80" height="80" viewBox="0 0 80 80" fill="none" xmlns="http://www.w3.org/2000/svg">
    <circle cx="40" cy="40" r="40" fill="#E6F7FF"/>
    <path d="M40 18C42.9174 18 45.7153 19.1589 47.7782 21.2218C49.8411 23.2847 51 26.0826 51 29C51 31.9174 49.8411 34.7153 47.7782 36.7782C45.7153 38.8411 42.9174 40 40 40C37.0826 40 34.2847 38.8411 32.2218 36.7782C30.1589 34.7153 29 31.9174 29 29C29 26.0826 30.1589 23.2847 32.2218 21.2218C34.2847 19.1589 37.0826 18 40 18ZM40 45.5C52.155 45.5 62 50.4225 62 56.5V62H18V56.5C18 50.4225 27.845 45.5 40 45.5Z" fill="#FAAD14"/>
    </svg>
    