<svg width="24" height="24" viewBox="0 0 24 24" fill="none" xmlns="http://www.w3.org/2000/svg">
    <path d="M7.34084 10.0848L12.0022 5.42534L16.6655 10.0886L19.3763 7.37595L12.0022 0L4.62817 7.37406L7.34084 10.0848Z" fill="#F3BA2F" />
    <path d="M0 12.001L2.71168 9.2893L5.42335 12.001L2.71168 14.7127L0 12.001Z" fill="#F3BA2F" />
    <path d="M7.34097 13.916L12.0024 18.5773L16.6656 13.9141L19.3783 16.6229L19.3764 16.6248L12.0024 24.0008L4.6283 16.6286L4.62451 16.6248L7.34097 13.916Z" fill="#F3BA2F" />
    <path d="M18.5767 12.0015L21.2883 9.28979L24 12.0015L21.2883 14.7131L18.5767 12.0015Z" fill="#F3BA2F" />
    <path d="M14.753 11.9995L12.0024 9.24707L9.96839 11.2811L9.73333 11.5143L9.25184 11.9958L9.24805 11.9995L9.25184 12.0052L12.0024 14.7539L14.753 12.0014L14.7549 11.9995H14.753Z" fill="#F3BA2F" />
</svg>
    