<svg width="14" height="11" viewBox="0 0 14 11" fill="none" xmlns="http://www.w3.org/2000/svg">
<path d="M3.02632 8.18547C3.05757 8.18547 3.08882 8.18315 3.12007 8.17967L5.74819 7.83798C5.77944 7.83335 5.80913 7.82292 5.83101 7.80555L12.4544 2.89559C12.4689 2.88488 12.4804 2.87215 12.4883 2.85814C12.4961 2.84412 12.5001 2.8291 12.5001 2.81393C12.5001 2.79876 12.4961 2.78374 12.4883 2.76973C12.4804 2.75572 12.4689 2.74299 12.4544 2.73227L9.85757 0.806051C9.82788 0.784044 9.78882 0.772461 9.74663 0.772461C9.70444 0.772461 9.66538 0.784044 9.63569 0.806051L3.01226 5.71601C2.98882 5.73338 2.97476 5.75423 2.96851 5.7774L2.50757 7.72563C2.49237 7.78768 2.4978 7.85154 2.52339 7.91168C2.54898 7.97183 2.59397 8.02644 2.65444 8.0708C2.75757 8.14493 2.88726 8.18547 3.02632 8.18547ZM4.07944 6.16542L9.74663 1.96549L10.8919 2.81451L5.22476 7.01444L3.83569 7.19629L4.07944 6.16542ZM12.7498 9.15842H1.24976C0.973193 9.15842 0.749756 9.32406 0.749756 9.52907V9.94605C0.749756 9.99702 0.806006 10.0387 0.874756 10.0387H13.1248C13.1935 10.0387 13.2498 9.99702 13.2498 9.94605V9.52907C13.2498 9.32406 13.0263 9.15842 12.7498 9.15842Z" fill="black"/>
</svg>
