<svg width="20" height="18" viewBox="0 0 20 18" fill="none" xmlns="http://www.w3.org/2000/svg">
<path d="M18.4134 1.83508C17.3781 0.712188 15.9575 0.09375 14.413 0.09375C13.2585 0.09375 12.2013 0.45875 11.2704 1.17852C10.8008 1.5418 10.3752 1.98633 10 2.50508C9.62492 1.98645 9.19922 1.5418 8.72941 1.17852C7.79875 0.45875 6.74148 0.09375 5.58699 0.09375C4.0425 0.09375 2.62176 0.712188 1.58645 1.83508C0.563516 2.94484 0 4.46098 0 6.10434C0 7.79574 0.630351 9.3441 1.98363 10.9771C3.19426 12.4378 4.93422 13.9207 6.94914 15.6377C7.63719 16.2241 8.41707 16.8888 9.22684 17.5968C9.4408 17.7842 9.71557 17.8875 10 17.8873C10.2846 17.8873 10.5592 17.7842 10.7729 17.5971C11.5826 16.8889 12.363 16.224 13.0513 15.6373C15.0659 13.9205 16.8059 12.4378 18.0165 10.9769C19.3698 9.34414 20 7.79578 20 6.10418C20 4.46098 19.4365 2.94484 18.4134 1.83508Z" fill="#DBDBDE"/>
</svg>
