<svg width="14" height="14" viewBox="0 0 14 14" fill="none" xmlns="http://www.w3.org/2000/svg">
<path d="M9.87 7.43773C8.981 7.43773 8.26 8.15874 8.26 9.04774C8.26 9.93674 8.981 10.6577 9.87 10.6577C10.759 10.6577 11.48 9.93674 11.48 9.04774C11.48 8.15874 10.759 7.43773 9.87 7.43773ZM9.87 9.64274C9.541 9.64274 9.275 9.37674 9.275 9.04774C9.275 8.71874 9.541 8.45274 9.87 8.45274C10.199 8.45274 10.465 8.71874 10.465 9.04774C10.465 9.37674 10.199 9.64274 9.87 9.64274ZM13.44 0.490234H9.73C9.73 0.5 8.5 0.512094 8.5 0.512094L7.5 0.510234C6.95925 0.510234 6.37 0.490234 6.37 0.490234H2.66C2.35025 0.490234 2.1 0.740484 2.1 1.05023V4.55023H0.56C0.25025 4.55023 0 4.80048 0 5.11023V12.9502C0 13.26 0.25025 13.5102 0.56 13.5102H6.44C6.74975 13.5102 7 13.26 7 12.9502V12.6702H13.44C13.7498 12.6702 14 12.42 14 12.1102V1.05023C14 0.740484 13.7498 0.490234 13.44 0.490234ZM6.23 1.61023H7.49H8.61H9.87V2.45023H6.23V1.61023ZM5.88 12.3902H1.12V8.33024H5.88V12.3902ZM5.88 7.21023H1.12V5.67023H5.88V7.21023ZM12.74 11.4102H7V5.11023C7 4.80048 6.74975 4.55023 6.44 4.55023H3.36V1.75023H5.11V3.57023H10.99V1.75023H12.74V11.4102ZM10.36 4.69023V6.37023C10.36 6.44723 10.423 6.51023 10.5 6.51023H11.34C11.417 6.51023 11.48 6.44723 11.48 6.37023V4.69023C11.48 4.61323 11.417 4.55023 11.34 4.55023H10.5C10.423 4.55023 10.36 4.61323 10.36 4.69023ZM8.4 6.51023H9.24C9.317 6.51023 9.38 6.44723 9.38 6.37023V5.39023C9.38 5.31323 9.317 5.25023 9.24 5.25023H8.4C8.323 5.25023 8.26 5.31323 8.26 5.39023V6.37023C8.26 6.44723 8.323 6.51023 8.4 6.51023Z" fill="black" fill-opacity="0.85"/>
</svg>
