<svg width="74" height="26" viewBox="0 0 74 26" fill="none" xmlns="http://www.w3.org/2000/svg">
    <rect x="0.5" width="73" height="26" rx="13" fill="url(#paint0_linear_1569_48362)"/>
    <path d="M13.368 15.488V9.932H14.136C15.948 9.932 16.704 10.88 16.704 12.644V12.74C16.704 14.516 15.888 15.488 14.16 15.488H13.368ZM11.424 17H14.22C17.232 17 18.732 15.284 18.732 12.716V12.62C18.732 10.052 17.244 8.42 14.232 8.42H11.424V17ZM20.023 17H21.751V10.724H20.023V17ZM20.875 9.872C21.439 9.872 21.871 9.464 21.871 8.924C21.871 8.384 21.439 7.976 20.875 7.976C20.323 7.976 19.891 8.384 19.891 8.924C19.891 9.464 20.323 9.872 20.875 9.872ZM25.042 17.132C26.026 17.132 26.578 16.748 26.938 16.244V17H28.63V12.908C28.63 11.204 27.538 10.58 26.002 10.58C24.466 10.58 23.29 11.24 23.182 12.728H24.826C24.898 12.188 25.21 11.84 25.894 11.84C26.686 11.84 26.914 12.248 26.914 12.992V13.244H26.206C24.286 13.244 22.942 13.796 22.942 15.26C22.942 16.58 23.902 17.132 25.042 17.132ZM25.558 15.92C24.922 15.92 24.646 15.62 24.646 15.164C24.646 14.492 25.234 14.276 26.242 14.276H26.914V14.804C26.914 15.5 26.326 15.92 25.558 15.92ZM30.1235 17H31.8635V13.292C31.8635 12.44 32.4035 12.008 33.0755 12.008C33.6875 12.008 34.0595 12.368 34.0595 13.172V17H35.7875V13.292C35.7875 12.44 36.3275 12.008 36.9995 12.008C37.6235 12.008 37.9835 12.368 37.9835 13.172V17H39.7115V12.98C39.7115 11.312 38.8115 10.58 37.6475 10.58C36.8555 10.58 36.0395 10.916 35.5355 11.672C35.2355 10.928 34.6115 10.58 33.7835 10.58C32.8475 10.58 32.1755 11.096 31.8635 11.684V10.724H30.1235V17ZM44.1257 15.812C43.1417 15.812 42.5897 15.092 42.5897 13.892V13.796C42.5897 12.596 43.1657 11.9 44.1257 11.9C45.0977 11.9 45.6617 12.62 45.6617 13.82V13.904C45.6617 15.092 45.0977 15.812 44.1257 15.812ZM44.1137 17.132C45.9977 17.132 47.4257 15.872 47.4257 13.892V13.796C47.4257 11.84 46.0097 10.58 44.1257 10.58C42.2417 10.58 40.8137 11.864 40.8137 13.832V13.928C40.8137 15.884 42.2417 17.132 44.1137 17.132ZM48.5922 17H50.3322V13.376C50.3322 12.452 50.8962 11.996 51.6402 11.996C52.4082 11.996 52.7442 12.404 52.7442 13.256V17H54.4842V13.004C54.4842 11.324 53.6082 10.58 52.3722 10.58C51.3282 10.58 50.6442 11.096 50.3322 11.72V10.724H48.5922V17ZM58.327 17.132C59.251 17.132 60.019 16.592 60.343 15.956V17H62.071V7.88H60.343V11.66C59.995 11.024 59.371 10.58 58.363 10.58C56.791 10.58 55.603 11.792 55.603 13.856V13.952C55.603 16.04 56.803 17.132 58.327 17.132ZM58.843 15.776C57.979 15.776 57.379 15.164 57.379 13.916V13.82C57.379 12.572 57.919 11.912 58.891 11.912C59.839 11.912 60.391 12.548 60.391 13.796V13.892C60.391 15.164 59.755 15.776 58.843 15.776Z" fill="#0B0B0C"/>
    <defs>
    <linearGradient id="paint0_linear_1569_48362" x1="0.5" y1="0" x2="67.1599" y2="37.7402" gradientUnits="userSpaceOnUse">
    <stop stop-color="#B6DAEE"/>
    <stop offset="0.400005" stop-color="#F3F8FB"/>
    <stop offset="0.76629" stop-color="#9CC3E7"/>
    <stop offset="1" stop-color="#70A7D9"/>
    </linearGradient>
    </defs>
    </svg>
    