<svg width="165" height="31" viewBox="0 0 165 31" fill="none" xmlns="http://www.w3.org/2000/svg">
    <g clip-path="url(#clip0_3293_24513)">
    <path d="M23.5577 20.533H11.1903L10.1556 18.7334L9.12319 16.9316H5L6.03024 18.7334L7.0627 20.533L8.09515 22.3348L9.1254 24.1366L10.1556 25.9362L11.1903 27.738H15.3091L14.2855 25.9362L13.2552 24.1366H25.6358L24.5879 22.3348L23.5577 20.533Z" fill="#1D3B30"/>
    <path d="M32.8364 15.1298L31.8062 13.328L30.7737 15.1298L29.7435 16.9316L28.7132 15.1298L27.6808 13.328L26.6505 11.5284L25.6203 9.72664L24.5878 7.92485L23.5576 6.12305L22.5273 7.92485L21.4949 9.72664L22.5273 11.5284L23.5576 13.328L24.5878 15.1298L25.6203 16.9316L26.6505 18.7334L27.6808 20.533L26.6505 22.3348L25.6203 24.1366L26.6505 25.9361L27.6808 27.7379L28.7132 25.9361L29.7435 24.1366L30.7737 22.3348L31.8062 20.533L32.8364 18.7334L33.8666 16.9316L32.8364 15.1298Z" fill="#1D3B30"/>
    <path d="M13.2487 16.9317L14.2855 15.1299L15.3158 13.3281L16.3482 11.5285L17.3807 9.72669L18.4109 7.9249L19.4434 6.1231H23.5577L24.588 4.32353L25.6204 2.52173H13.2398L12.2162 4.32353L11.1904 6.1231H15.3091L14.2855 7.9249L13.2553 9.72669L12.2228 11.5285L11.1904 13.3281L10.1601 15.1299L9.12769 16.9317H13.2487Z" fill="#1D3B30"/>
    </g>
    <path d="M47.717 7.63867V23.325H44.5234V7.63867H47.717ZM52.5022 7.63867V10.1705H39.813V7.63867H52.5022Z" fill="#1D3B30"/>
    <path d="M54.3287 7.63867H60.1285C61.3177 7.63867 62.3395 7.81823 63.194 8.17735C64.0556 8.53647 64.7179 9.06796 65.1807 9.77183C65.6436 10.4757 65.875 11.3412 65.875 12.3683C65.875 13.2086 65.7326 13.9304 65.4478 14.5337C65.17 15.1299 64.7748 15.6291 64.2621 16.0313C63.7566 16.4263 63.162 16.7423 62.4784 16.9793L61.4637 17.518H56.4222L56.4008 14.997H60.1499C60.7124 14.997 61.1789 14.8965 61.5491 14.6953C61.9194 14.4942 62.1971 14.2141 62.3823 13.855C62.5745 13.4959 62.6707 13.0793 62.6707 12.6053C62.6707 12.1025 62.5781 11.668 62.3929 11.3017C62.2078 10.9354 61.9265 10.6553 61.5491 10.4613C61.1717 10.2674 60.6982 10.1705 60.1285 10.1705H57.533V23.325H54.3287V7.63867ZM63.0231 23.325L59.477 16.3329L62.8629 16.3114L66.4518 23.1741V23.325H63.0231Z" fill="#1D3B30"/>
    <path d="M71.7496 7.63867V23.325H68.556V7.63867H71.7496Z" fill="#1D3B30"/>
    <path d="M78.5136 23.325H75.2665L75.2878 21.6335H78.5136C79.6244 21.6335 80.5501 21.4001 81.2907 20.9332C82.0312 20.4592 82.5866 19.7984 82.9569 18.9509C83.3343 18.0962 83.523 17.0978 83.523 15.9559V14.997C83.523 14.0992 83.4162 13.302 83.2026 12.6053C82.989 11.9014 82.6756 11.3089 82.2626 10.8276C81.8496 10.3392 81.3441 9.96935 80.7459 9.71797C80.1549 9.46658 79.4749 9.34089 78.7058 9.34089H75.2024V7.63867H78.7058C79.7241 7.63867 80.6533 7.81105 81.4936 8.1558C82.3338 8.49337 83.0566 8.98537 83.6619 9.63178C84.2743 10.271 84.7442 11.0467 85.0718 11.9589C85.3993 12.8638 85.5631 13.8837 85.5631 15.0186V15.9559C85.5631 17.0907 85.3993 18.1142 85.0718 19.0263C84.7442 19.9313 84.2707 20.7034 83.6512 21.3426C83.0388 21.9819 82.2982 22.4738 81.4295 22.8186C80.5679 23.1562 79.5959 23.325 78.5136 23.325ZM76.3666 7.63867V23.325H74.3052V7.63867H76.3666Z" fill="#1D3B30"/>
    <path d="M98.5407 21.6335V23.325H90.3055V21.6335H98.5407ZM90.7221 7.63867V23.325H88.6606V7.63867H90.7221ZM97.4512 14.3829V16.0744H90.3055V14.3829H97.4512ZM98.4339 7.63867V9.34089H90.3055V7.63867H98.4339Z" fill="#1D3B30"/>
    <path d="M113.056 7.63867V23.325H110.984L103.155 11.2263V23.325H101.094V7.63867H103.155L111.016 19.7697V7.63867H113.056Z" fill="#1D3B30"/>
    <path d="M122.135 7.63867V23.325H120.106V7.63867H122.135ZM127.134 7.63867V9.34089H115.118V7.63867H127.134Z" fill="#1D3B30"/>
    <path d="M131.652 7.63867V23.325H129.591V7.63867H131.652Z" fill="#1D3B30"/>
    <path d="M140.827 7.63867V23.325H138.798V7.63867H140.827ZM145.826 7.63867V9.34089H133.81V7.63867H145.826Z" fill="#1D3B30"/>
    <path d="M149.02 7.63867L153.057 15.5141L157.105 7.63867H159.445L154.083 17.4641V23.325H152.021V17.4641L146.659 7.63867H149.02Z" fill="#1D3B30"/>
    <defs>
    <clipPath id="clip0_3293_24513">
    <rect width="28.8667" height="25.2163" fill="white" transform="translate(5 2.52173)"/>
    </clipPath>
    </defs>
    </svg>
    