<svg width="540" height="72" viewBox="0 0 540 72" fill="none" xmlns="http://www.w3.org/2000/svg">
    <g clip-path="url(#clip0_2130_43605)">
    <path d="M194.586 22.8568H178.734L177.408 20.5731L176.085 18.2866H170.8L172.12 20.5731L173.444 22.8568L174.767 25.1434L176.088 27.4299L177.408 29.7136L178.734 32.0001H184.013L182.701 29.7136L181.381 27.4299H197.25L195.907 25.1434L194.586 22.8568Z" fill="#1D3B30"/>
    <path d="M206.479 16.0001L205.159 13.7136L203.836 16.0001L202.515 18.2866L201.195 16.0001L199.871 13.7136L198.551 11.4299L197.23 9.14336L195.907 6.85684L194.586 4.57031L193.266 6.85684L191.942 9.14336L193.266 11.4299L194.586 13.7136L195.907 16.0001L197.23 18.2866L198.551 20.5731L199.871 22.8568L198.551 25.1434L197.23 27.4299L198.551 29.7136L199.871 32.0001L201.195 29.7136L202.515 27.4299L203.836 25.1434L205.159 22.8568L206.479 20.5731L207.8 18.2866L206.479 16.0001Z" fill="#1D3B30"/>
    <path d="M181.372 18.2865L182.701 16L184.022 13.7135L185.345 11.4298L186.669 9.14326L187.989 6.85674L189.313 4.57022H194.586L195.907 2.28652L197.23 0H181.361L180.049 2.28652L178.734 4.57022H184.013L182.701 6.85674L181.381 9.14326L180.058 11.4298L178.734 13.7135L177.414 16L176.09 18.2865H181.372Z" fill="#1D3B30"/>
    </g>
    <path d="M225.535 6.49365V26.4937H221.424V6.49365H225.535ZM231.695 6.49365V9.72167H215.36V6.49365H231.695Z" fill="#1D3B30"/>
    <path d="M234.046 6.49365H241.512C243.043 6.49365 244.358 6.72259 245.458 7.18047C246.568 7.63834 247.42 8.316 248.016 9.21343C248.612 10.1109 248.91 11.2143 248.91 12.5239C248.91 13.5953 248.726 14.5156 248.36 15.2849C248.002 16.0449 247.493 16.6814 246.833 17.1942C246.183 17.6979 245.417 18.1008 244.537 18.403L243.231 19.0898H236.741L236.714 15.8755H241.54C242.264 15.8755 242.864 15.7473 243.341 15.4909C243.818 15.2345 244.175 14.8774 244.413 14.4195C244.661 13.9616 244.785 13.4305 244.785 12.8261C244.785 12.185 244.666 11.631 244.427 11.164C244.189 10.6969 243.827 10.3398 243.341 10.0926C242.855 9.8453 242.246 9.72167 241.512 9.72167H238.171V26.4937H234.046V6.49365ZM245.238 26.4937L240.674 17.5788L245.032 17.5513L249.652 26.3013V26.4937H245.238Z" fill="#1D3B30"/>
    <path d="M256.472 6.49365V26.4937H252.361V6.49365H256.472Z" fill="#1D3B30"/>
    <path d="M265.179 26.4937H260.999L261.027 24.3371H265.179C266.609 24.3371 267.801 24.0394 268.754 23.4442C269.707 22.8398 270.422 21.9973 270.899 20.9167C271.385 19.827 271.628 18.5541 271.628 17.098V15.8755C271.628 14.7308 271.49 13.7143 271.215 12.8261C270.94 11.9286 270.537 11.1731 270.005 10.5596C269.473 9.93688 268.823 9.46526 268.053 9.14475C267.292 8.82424 266.416 8.66398 265.426 8.66398H260.917V6.49365H265.426C266.737 6.49365 267.934 6.71343 269.015 7.15299C270.097 7.5834 271.027 8.21069 271.806 9.03486C272.595 9.84988 273.2 10.8389 273.621 12.0019C274.043 13.1557 274.254 14.4561 274.254 15.903V17.098C274.254 18.5449 274.043 19.8499 273.621 21.0129C273.2 22.1667 272.59 23.1512 271.793 23.9662C271.004 24.7812 270.051 25.4085 268.933 25.848C267.824 26.2785 266.572 26.4937 265.179 26.4937ZM262.415 6.49365V26.4937H259.762V6.49365H262.415Z" fill="#1D3B30"/>
    <path d="M290.96 24.3371V26.4937H280.359V24.3371H290.96ZM280.895 6.49365V26.4937H278.241V6.49365H280.895ZM289.557 15.0926V17.2491H280.359V15.0926H289.557ZM290.822 6.49365V8.66398H280.359V6.49365H290.822Z" fill="#1D3B30"/>
    <path d="M309.645 6.49365V26.4937H306.978L296.9 11.0678V26.4937H294.246V6.49365H296.9L307.019 21.9607V6.49365H309.645Z" fill="#1D3B30"/>
    <path d="M321.333 6.49365V26.4937H318.72V6.49365H321.333ZM327.768 6.49365V8.66398H312.299V6.49365H327.768Z" fill="#1D3B30"/>
    <path d="M333.584 6.49365V26.4937H330.93V6.49365H333.584Z" fill="#1D3B30"/>
    <path d="M345.395 6.49365V26.4937H342.782V6.49365H345.395ZM351.83 6.49365V8.66398H336.361V6.49365H351.83Z" fill="#1D3B30"/>
    <path d="M355.941 6.49365L361.138 16.5349L366.349 6.49365H369.36L362.458 19.0211V26.4937H359.804V19.0211L352.902 6.49365H355.941Z" fill="#1D3B30"/>
    <path d="M220.13 66H221.278L222.244 63.116H226.374L227.354 66H228.558L225.17 55.99H223.574L220.13 66ZM224.316 56.998L226.052 62.15H222.58L224.316 56.998ZM231.538 65.006V56.97H232.896C235.654 56.97 236.774 58.594 236.774 60.904V61.016C236.774 63.466 235.486 65.006 232.91 65.006H231.538ZM230.32 66H232.938C236.438 66 238.034 63.802 238.034 61.03V60.904C238.034 58.118 236.41 55.99 232.966 55.99H230.32V66ZM240.068 66H241.188V57.572L244.618 66H244.996L248.314 57.572V66H249.532V55.99H247.852L244.856 63.788L241.762 55.99H240.068V66ZM252.128 66H253.346V55.99H252.128V66ZM255.941 66H257.103V57.418L262.157 66H263.557V55.99H262.395V64.264L257.523 55.99H255.941V66ZM269.777 66H270.995V61.926H272.619C274.523 61.926 276.119 61.1 276.119 58.972V58.916C276.119 56.83 274.537 55.99 272.619 55.99H269.777V66ZM270.995 60.96V56.97H272.703C274.061 56.97 274.901 57.502 274.901 58.916V58.972C274.901 60.26 274.131 60.96 272.703 60.96H270.995ZM282.377 65.118C280.291 65.118 278.681 63.466 278.681 61.044V60.932C278.681 58.552 280.025 56.844 282.349 56.844C284.659 56.844 285.975 58.664 285.975 60.904V61.016C285.975 63.438 284.603 65.118 282.377 65.118ZM282.377 66.126C285.289 66.126 287.235 63.858 287.235 61.03V60.918C287.235 58.104 285.289 55.864 282.349 55.864C279.409 55.864 277.421 58.104 277.421 60.946V61.058C277.421 63.858 279.423 66.126 282.377 66.126ZM289.259 66H290.477V61.646H292.017L294.999 66H296.357L293.291 61.562C294.663 61.296 295.769 60.484 295.769 58.832V58.776C295.769 56.774 294.187 55.99 292.269 55.99H289.259V66ZM290.477 60.68V56.97H292.353C293.711 56.97 294.551 57.418 294.551 58.776V58.832C294.551 60.064 293.781 60.68 292.353 60.68H290.477ZM299.903 66H301.121V56.984H304.033V55.99H296.991V56.984H299.903V66ZM303.952 66H305.1L306.066 63.116H310.196L311.176 66H312.38L308.992 55.99H307.396L303.952 66ZM308.138 56.998L309.874 62.15H306.402L308.138 56.998ZM314.142 66H319.938V65.006H315.36V55.99H314.142V66Z" fill="#0B0B0C"/>
    <defs>
    <clipPath id="clip0_2130_43605">
    <rect width="37" height="32" fill="white" transform="translate(170.8)"/>
    </clipPath>
    </defs>
    </svg>
    